<svg width="13" height="13" viewBox="0 0 13 13" fill="none" xmlns="http://www.w3.org/2000/svg">
<path d="M6.49998 9.16536C7.20722 9.16536 7.8855 8.88441 8.3856 8.38432C8.8857 7.88422 9.16665 7.20594 9.16665 6.4987C9.16665 5.79145 8.8857 5.11318 8.3856 4.61308C7.8855 4.11298 7.20722 3.83203 6.49998 3.83203C5.79274 3.83203 5.11446 4.11298 4.61436 4.61308C4.11426 5.11318 3.83331 5.79145 3.83331 6.4987C3.83331 7.20594 4.11426 7.88422 4.61436 8.38432C5.11446 8.88441 5.79274 9.16536 6.49998 9.16536Z" stroke="#242424" stroke-linecap="round" stroke-linejoin="round"/>
<path d="M0.5 9.16667V3.83333C0.5 2.94928 0.851189 2.10143 1.47631 1.47631C2.10143 0.851189 2.94928 0.5 3.83333 0.5H9.16667C10.0507 0.5 10.8986 0.851189 11.5237 1.47631C12.1488 2.10143 12.5 2.94928 12.5 3.83333V9.16667C12.5 10.0507 12.1488 10.8986 11.5237 11.5237C10.8986 12.1488 10.0507 12.5 9.16667 12.5H3.83333C2.94928 12.5 2.10143 12.1488 1.47631 11.5237C0.851189 10.8986 0.5 10.0507 0.5 9.16667Z" stroke="#242424"/>
<path d="M10.1667 2.83936L10.1734 2.83203" stroke="#242424" stroke-linecap="round" stroke-linejoin="round"/>
</svg>
